<?xml version="1.0" encoding="UTF-8" standalone="no"?>
<!-- Created with Inkscape (http://www.inkscape.org/) -->

<svg
   width="24mm"
   height="24mm"
   viewBox="0 0 24 24"
   version="1.1"
   id="svg1"
   xml:space="preserve"
   inkscape:version="1.4.2 (ebf0e940d0, 2025-05-08)"
   sodipodi:docname="Spacepod-Icon-Rendered.svg"
   xmlns:inkscape="http://www.inkscape.org/namespaces/inkscape"
   xmlns:sodipodi="http://sodipodi.sourceforge.net/DTD/sodipodi-0.dtd"
   xmlns="http://www.w3.org/2000/svg"
   xmlns:svg="http://www.w3.org/2000/svg"><sodipodi:namedview
     id="namedview1"
     pagecolor="#505050"
     bordercolor="#eeeeee"
     borderopacity="1"
     inkscape:showpageshadow="0"
     inkscape:pageopacity="0"
     inkscape:pagecheckerboard="0"
     inkscape:deskcolor="#505050"
     inkscape:document-units="mm"
     showgrid="true"
     inkscape:zoom="2.2904189"
     inkscape:cx="-52.828765"
     inkscape:cy="29.688893"
     inkscape:window-width="1850"
     inkscape:window-height="2027"
     inkscape:window-x="50"
     inkscape:window-y="50"
     inkscape:window-maximized="0"
     inkscape:current-layer="layer1" /><defs
     id="defs1"><inkscape:path-effect
       effect="fillet_chamfer"
       id="path-effect11"
       is_visible="true"
       lpeversion="1"
       nodesatellites_param="F,0,0,1,0,2.6458333,0,1 @ F,0,0,1,0,2.6458333,0,1 @ F,0,0,1,0,2.6458333,0,1 @ F,0,0,1,0,2.6458333,0,1"
       radius="10"
       unit="px"
       method="auto"
       mode="F"
       chamfer_steps="1"
       flexible="false"
       use_knot_distance="true"
       apply_no_radius="true"
       apply_with_radius="true"
       only_selected="false"
       hide_knots="false" /><inkscape:path-effect
       effect="fillet_chamfer"
       id="path-effect10"
       is_visible="true"
       lpeversion="1"
       nodesatellites_param="F,0,0,1,0,0,0,1 @ F,0,0,1,0,0,0,1 @ F,0,0,1,0,0,0,1 @ F,0,0,1,0,0,0,1"
       radius="0"
       unit="px"
       method="auto"
       mode="F"
       chamfer_steps="1"
       flexible="false"
       use_knot_distance="true"
       apply_no_radius="true"
       apply_with_radius="true"
       only_selected="false"
       hide_knots="false" /><inkscape:path-effect
       effect="fillet_chamfer"
       id="path-effect9"
       is_visible="true"
       lpeversion="1"
       nodesatellites_param="F,0,0,1,0,0,0,1 @ F,0,0,1,0,0,0,1 @ F,0,0,1,0,0,0,1 @ F,0,0,1,0,0,0,1"
       radius="0"
       unit="px"
       method="auto"
       mode="F"
       chamfer_steps="1"
       flexible="false"
       use_knot_distance="true"
       apply_no_radius="true"
       apply_with_radius="true"
       only_selected="false"
       hide_knots="false" /><inkscape:path-effect
       effect="fillet_chamfer"
       id="path-effect8"
       is_visible="true"
       lpeversion="1"
       nodesatellites_param="F,0,0,1,0,0,0,1 @ F,0,0,1,0,0,0,1 @ F,0,0,1,0,0,0,1 @ F,0,0,1,0,0,0,1"
       radius="0"
       unit="px"
       method="auto"
       mode="F"
       chamfer_steps="1"
       flexible="false"
       use_knot_distance="true"
       apply_no_radius="true"
       apply_with_radius="true"
       only_selected="false"
       hide_knots="false" /><symbol
       id="FlowSymbols.svg:ManualOperation"><title
         id="title5">Manual Operation</title><desc
         id="desc5">An offline process (at &quot;human speed&quot;).</desc><path
         d="m 15,35 h 120 l -30,80 H 45 Z"
         style="stroke-width:2px"
         id="path5" /></symbol><symbol
       id="FlowSymbols.svg:ManualInput"><title
         id="title12">Manual Input</title><desc
         id="desc12">Information input by online keyboards, switches, etc.</desc><path
         d="M 15,65 135,45 v 60 H 15 Z"
         style="stroke-width:2"
         id="path12" /></symbol><symbol
       id="sjjb-sport.svg:stadium"
       viewBox="0 0 515.69336 333.96094"><title
         id="title29">Stadium</title><path
         d="M 257.82031,0 C 190.08276,0 128.79794,7.64569 83.03125,20.56836 60.147905,27.02969 41.159098,34.65218 26.550782,44.4043 11.942467,54.15641 0,67.57437 0,85.00391 c 0,8.62899 2.92963,16.2739 7.658203,22.97852 L 31.90625,249.78125 a 13.748887,13.748887 0 0 0 8.773438,10.74805 c 4.132422,5.73156 9.665439,10.68617 15.751953,14.87109 12.719833,8.74584 29.252623,15.5843 49.177729,21.37891 21.48408,6.24797 46.9295,11.10351 75.03906,14.26758 v 8.95508 c 0,7.7333 9.97308,13.95898 22.36133,13.95898 h 119.34961 c 12.38825,0 22.36133,-6.22568 22.36133,-13.95898 v -10.13282 c 24.24596,-3.14298 46.30755,-7.57136 65.2832,-13.08984 19.92509,-5.79461 36.5087,-12.63307 49.22852,-21.37891 6.22782,-4.28207 11.89559,-9.36556 16.06836,-15.26757 a 13.748887,13.748887 0 0 0 7.70703,-10.18946 l 26.39258,-144.00781 c 3.91922,-6.20257 6.29297,-13.16786 6.29297,-20.93164 0,-17.42954 -11.94246,-30.8475 -26.55079,-40.59961 C 474.53426,34.65218 455.49076,27.02969 432.60742,20.56836 386.84073,7.64569 325.55784,0 257.82031,0 Z m 0,34.28125 c 65.02777,0 123.953,7.58446 165.1914,19.22852 20.6192,5.82203 36.78316,12.79193 46.50391,19.28125 9.72078,6.48932 11.28516,10.89865 11.28516,12.21289 0,1.31424 -1.56438,5.77631 -11.28516,12.26563 -9.72075,6.48931 -25.8847,13.46117 -46.50391,19.2832 -41.2384,11.64406 -100.16363,19.22851 -165.1914,19.22851 -65.02778,0 -123.90026,-7.58445 -165.13867,-19.22851 C 72.062434,110.73071 55.843816,103.75886 46.123047,97.26954 36.402281,90.78023 34.892578,86.31815 34.892578,85.00391 c 0,-1.31424 1.509703,-5.72357 11.230469,-12.21289 C 55.843816,66.3017 72.062434,59.3318 92.681644,53.50977 133.92005,41.86571 192.79253,34.28125 257.82031,34.28125 Z m 218.66992,98.70508 -20.52539,112 a 13.748887,13.748887 0 0 0 -0.22461,3.66016 c -24.66889,15.55713 -63.79537,27.90236 -111.01953,34.79492 v -32.9707 c 0.6253,-65.07936 -148.97163,-75.61835 -164.07227,0 v 34.29297 C 128.63474,278.14965 85.493864,265.04661 59.21093,248.23047 a 13.748887,13.748887 0 0 0 -0.203125,-3.08203 L 39.888672,133.33985 c 12.249423,6.22495 26.682622,11.50471 43.142582,16.15234 45.766686,12.92266 107.051506,20.56836 174.789056,20.56836 67.73753,0 129.02042,-7.6457 174.78711,-20.56836 16.77134,-4.73555 31.47074,-10.12643 43.88281,-16.50586 z"
         id="path30" /><path
         opacity="0.5"
         d="m 214.60156,14.20704 a 5.0005,5.0005 0 0 0 -0.49219,0.0215 l -12.91406,1.17187 A 5.0005,5.0005 0 0 0 196.75,21.3887 l 14.8789,72.33007 c -19.30976,1.27889 -38.5892,3.24308 -57.73047,6.14649 l -30.16796,-65.5586 a 5.0005,5.0005 0 0 0 -5.23438,-2.86132 l -16.16797,2.25781 a 5.0005,5.0005 0 0 0 -3.414056,7.80859 l 42.101556,60.51953 c -18.22162,3.18122 -36.30893,7.1461 -54.126946,12.29493 a 5.0005,5.0005 0 0 0 0.19531,9.6582 c 66.617616,16.37586 135.692396,19.58893 203.738276,17.64648 a 5.0005,5.0005 0 0 0 0.0566,-0.002 c 49.63302,-1.96783 99.78668,-6.87075 148,-20.4043 a 5.0005,5.0005 0 0 0 -0.0781,-9.64843 c -18.45328,-4.86384 -37.15367,-8.55738 -55.97461,-11.4629 l 40.76758,-58.60156 a 5.0005,5.0005 0 0 0 -3.41407,-7.80859 l -16.16797,-2.25781 a 5.0005,5.0005 0 0 0 -5.23437,2.86132 l -29.375,63.83204 C 350.03035,95.5799 330.54405,93.91838 311.04099,92.94333 l 14.7168,-71.55468 a 5.0005,5.0005 0 0 0 -4.44531,-5.98829 l -12.91407,-1.17187 a 5.0005,5.0005 0 0 0 -5.4414,4.66602 l -4.61131,73.51565 c -12.47925,-0.43711 -24.95469,-0.66973 -37.39844,-0.625 a 5.0005,5.0005 0 0 0 -0.0449,0 c -12.21547,0.15491 -24.46082,0.5771 -36.70313,1.20117 l -4.64648,-74.09179 a 5.0005,5.0005 0 0 0 -4.95117,-4.6875 z"
         id="path31" /></symbol></defs><g
     inkscape:label="Background"
     inkscape:groupmode="layer"
     id="layer1"
     style="opacity:1;fill:#ffffff;fill-opacity:1"><path
       style="fill:#ffffff;fill-opacity:1;stroke-width:0.274;stroke-dasharray:none"
       id="rect5"
       width="24"
       height="24"
       x="-1.3877788e-17"
       y="0"
       sodipodi:type="rect"
       inkscape:path-effect="#path-effect11"
       d="M 2.6458333,0 H 21.354167 A 2.6458333,2.6458333 45 0 1 24,2.6458333 V 21.354167 A 2.6458333,2.6458333 135 0 1 21.354167,24 H 2.6458333 A 2.6458333,2.6458333 45 0 1 0,21.354167 V 2.6458333 A 2.6458333,2.6458333 135 0 1 2.6458333,0 Z" /></g><g
     inkscape:groupmode="layer"
     id="layer2"
     inkscape:label="Icon"
     style="display:inline;opacity:0.824;stroke:#000000;stroke-opacity:1"
     sodipodi:insensitive="true"><path
       style="fill:#000000;fill-opacity:1;stroke:none;stroke-width:0.274;stroke-dasharray:none;stroke-opacity:1"
       d="m 1.1231436,11.987005 0.7964108,3.34901 0.3267327,0.306312 3.716584,1.613242 13.3347769,4.839728 0.367575,-0.06126 L 22.44245,19.501856 19.889851,6.3917078 19.256807,6.0241335 19.706064,4.717203 18.378713,3.9003713 17.010519,3.3081682 16.214109,3.0018564 14.19245,2.4913366 13.600247,2.552599 13.15099,3.6553216 12.844678,3.6144803 11.966584,3.8595297 Z"
       id="path13" /></g><g
     inkscape:groupmode="layer"
     id="layer4"
     inkscape:label="Window"
     sodipodi:insensitive="true"><path
       style="fill:#ffffff;fill-opacity:1;stroke:none;stroke-width:0.274;stroke-dasharray:none;stroke-opacity:1"
       d="m 18.5625,10.863861 c 0,0 -0.592203,-1.9808165 0.673886,-1.7561879 1.266089,0.2246289 1.266089,2.8180689 1.266089,2.8180689 z"
       id="path14" /></g></svg>
